<svg width="9" height="8" viewBox="0 0 9 8" fill="none" xmlns="http://www.w3.org/2000/svg">
<path d="M4.05164 1.57506C4.23505 1.20348 4.76493 1.20348 4.94834 1.57506L5.41377 2.51796C5.48654 2.66538 5.62713 2.76761 5.78981 2.79139L6.83143 2.94364C7.24139 3.00356 7.40478 3.50748 7.10798 3.79656L6.35505 4.52992C6.23711 4.64479 6.18328 4.81035 6.21111 4.97262L6.3887 6.00806C6.45876 6.41654 6.02999 6.72803 5.66317 6.53512L4.73272 6.0458C4.58702 5.96919 4.41296 5.96919 4.26726 6.0458L3.33681 6.53512C2.96999 6.72803 2.54122 6.41654 2.61128 6.00806L2.78887 4.97262C2.8167 4.81035 2.76287 4.64479 2.64493 4.52992L1.892 3.79656C1.5952 3.50748 1.75859 3.00356 2.16855 2.94364L3.21017 2.79139C3.37285 2.76761 3.51344 2.66538 3.58621 2.51796L4.05164 1.57506Z" fill="#FDD00C"/>
<path d="M5.17252 1.46441C4.89739 0.907032 4.10259 0.90703 3.82746 1.46441L3.36204 2.4073C3.32565 2.48102 3.25535 2.53213 3.17402 2.54402L2.13239 2.69627C1.51746 2.78615 1.27237 3.54203 1.71756 3.97565L2.4705 4.70901C2.52946 4.76644 2.55638 4.84923 2.54246 4.93036L2.36487 5.9658C2.25979 6.57852 2.90295 7.04575 3.45317 6.75639L4.38363 6.26707C4.45647 6.22876 4.54351 6.22876 4.61635 6.26707L5.54681 6.75639C6.09703 7.04575 6.74019 6.57853 6.63511 5.9658L6.45752 4.93036C6.4436 4.84923 6.47052 4.76644 6.52948 4.70901L7.28242 3.97565C7.72761 3.54203 7.48252 2.78615 6.86759 2.69627L5.82596 2.54402C5.74463 2.53213 5.67433 2.48102 5.63794 2.4073L5.17252 1.46441Z" stroke="#18191F" stroke-width="0.5" stroke-linecap="round" stroke-linejoin="round"/>
</svg>
