<svg xmlns="http://www.w3.org/2000/svg" xmlns:xlink="http://www.w3.org/1999/xlink" width="1920" zoomAndPan="magnify" viewBox="0 0 1440 809.999993" height="1080" preserveAspectRatio="xMidYMid meet" version="1.0"><defs><g/><clipPath id="25fb6581bd"><path d="M 140 128 L 1155 128 L 1155 800 L 140 800 Z M 140 128 " clip-rule="nonzero"/></clipPath><clipPath id="d058261408"><path d="M 1358.988281 557.707031 L 386.421875 986.816406 L 28.445312 175.472656 L 1001.007812 -253.636719 Z M 1358.988281 557.707031 " clip-rule="nonzero"/></clipPath><clipPath id="4086504edf"><path d="M 1000.980469 -253.699219 L 28.417969 175.414062 L 386.394531 986.757812 L 1358.960938 557.648438 Z M 1000.980469 -253.699219 " clip-rule="nonzero"/></clipPath><clipPath id="f32d8975fc"><path d="M 352 581 L 1250 581 L 1250 766 L 352 766 Z M 352 581 " clip-rule="nonzero"/></clipPath><clipPath id="6b3b828f75"><path d="M 1274.730469 709.375 L 583.902344 1103.035156 L 329.972656 657.417969 L 1020.800781 263.757812 Z M 1274.730469 709.375 " clip-rule="nonzero"/></clipPath><clipPath id="6eca4aedc8"><path d="M 1274.730469 709.375 L 583.902344 1103.035156 L 329.972656 657.417969 L 1020.800781 263.757812 Z M 1274.730469 709.375 " clip-rule="nonzero"/></clipPath><clipPath id="29506c7a83"><path d="M 342 567 L 1262 567 L 1262 752 L 342 752 Z M 342 567 " clip-rule="nonzero"/></clipPath><clipPath id="1cdf2dbe56"><path d="M 1274.730469 709.375 L 583.902344 1103.035156 L 329.972656 657.417969 L 1020.800781 263.757812 Z M 1274.730469 709.375 " clip-rule="nonzero"/></clipPath><clipPath id="965126ded9"><path d="M 1274.730469 709.375 L 583.902344 1103.035156 L 329.972656 657.417969 L 1020.800781 263.757812 Z M 1274.730469 709.375 " clip-rule="nonzero"/></clipPath><clipPath id="1e33f5e161"><path d="M 332 553 L 1274 553 L 1274 737 L 332 737 Z M 332 553 " clip-rule="nonzero"/></clipPath><clipPath id="70e03d8531"><path d="M 1274.730469 709.375 L 583.902344 1103.035156 L 329.972656 657.417969 L 1020.800781 263.757812 Z M 1274.730469 709.375 " clip-rule="nonzero"/></clipPath><clipPath id="8a217bd93e"><path d="M 1274.730469 709.375 L 583.902344 1103.035156 L 329.972656 657.417969 L 1020.800781 263.757812 Z M 1274.730469 709.375 " clip-rule="nonzero"/></clipPath><clipPath id="cdc750b543"><path d="M 789 2 L 1312 2 L 1312 525 L 789 525 Z M 789 2 " clip-rule="nonzero"/></clipPath><clipPath id="d8b5dd7442"><path d="M 777.367188 14.386719 L 1299.726562 -9.679688 L 1323.796875 512.679688 L 801.4375 536.75 Z M 777.367188 14.386719 " clip-rule="nonzero"/></clipPath><clipPath id="dcf7660184"><path d="M 777.367188 14.386719 L 1299.726562 -9.679688 L 1323.796875 512.679688 L 801.4375 536.75 Z M 777.367188 14.386719 " clip-rule="nonzero"/></clipPath><clipPath id="9c9b32b782"><path d="M 912 133 L 1184 133 L 1184 392 L 912 392 Z M 912 133 " clip-rule="nonzero"/></clipPath><clipPath id="459728bc6b"><path d="M 777.367188 14.386719 L 1299.726562 -9.679688 L 1323.796875 512.679688 L 801.4375 536.75 Z M 777.367188 14.386719 " clip-rule="nonzero"/></clipPath><clipPath id="16083dfed2"><path d="M 777.367188 14.386719 L 1299.726562 -9.679688 L 1323.796875 512.679688 L 801.4375 536.75 Z M 777.367188 14.386719 " clip-rule="nonzero"/></clipPath></defs><g clip-path="url(#25fb6581bd)"><g clip-path="url(#d058261408)"><g clip-path="url(#4086504edf)"><path fill="#9cbdbb" d="M 783.613281 771.78125 C 783.613281 771.78125 1212.382812 621.410156 1148.132812 277.765625 C 1083.878906 -65.882812 738.328125 309.753906 523.164062 181.484375 C 308 53.214844 29.003906 176.3125 187.328125 520.53125 C 345.667969 864.714844 702.316406 808.4375 783.613281 771.78125 Z M 783.613281 771.78125 " fill-opacity="1" fill-rule="nonzero"/></g></g></g><g fill="#2c3c49" fill-opacity="0.4"><g transform="translate(353.317502, 412.850385)"><g><path d="M 40.128906 -134.113281 C 23.230469 -134.113281 10.769531 -133.691406 10.558594 -122.074219 C 10.558594 -126.085938 12.671875 -103.488281 12.882812 -96.941406 C 13.515625 -84.480469 13.515625 -70.753906 13.09375 -59.769531 C 12.460938 -48.152344 9.925781 -21.121094 9.925781 -14.574219 C 9.925781 -5.070312 13.304688 0.632812 20.910156 0.632812 C 25.554688 0.632812 30.835938 -2.324219 30.835938 -8.871094 C 30.835938 -13.304688 30.414062 -23.230469 30.835938 -30.203125 C 31.679688 -41.183594 32.949219 -52.378906 33.371094 -63.78125 C 50.054688 -67.585938 96.097656 -81.523438 96.097656 -105.601562 C 96.097656 -124.820312 76.03125 -134.535156 40.128906 -134.113281 Z M 10.558594 -122.074219 C 10.558594 -121.863281 10.558594 -121.863281 10.558594 -121.863281 Z M 33.371094 -84.058594 C 33.160156 -93.984375 32.734375 -103.699219 31.890625 -113.414062 C 38.648438 -113.835938 47.941406 -114.257812 57.65625 -112.148438 C 63.359375 -111.089844 72.863281 -110.878906 72.863281 -105.179688 C 72.863281 -95.886719 41.816406 -86.59375 33.371094 -84.058594 Z M 33.371094 -84.058594 "/></g></g></g><g fill="#ffffff" fill-opacity="1"><g transform="translate(343.983605, 403.51649)"><g><path d="M 40.128906 -134.113281 C 23.230469 -134.113281 10.769531 -133.691406 10.558594 -122.074219 C 10.558594 -126.085938 12.671875 -103.488281 12.882812 -96.941406 C 13.515625 -84.480469 13.515625 -70.753906 13.09375 -59.769531 C 12.460938 -48.152344 9.925781 -21.121094 9.925781 -14.574219 C 9.925781 -5.070312 13.304688 0.632812 20.910156 0.632812 C 25.554688 0.632812 30.835938 -2.324219 30.835938 -8.871094 C 30.835938 -13.304688 30.414062 -23.230469 30.835938 -30.203125 C 31.679688 -41.183594 32.949219 -52.378906 33.371094 -63.78125 C 50.054688 -67.585938 96.097656 -81.523438 96.097656 -105.601562 C 96.097656 -124.820312 76.03125 -134.535156 40.128906 -134.113281 Z M 10.558594 -122.074219 C 10.558594 -121.863281 10.558594 -121.863281 10.558594 -121.863281 Z M 33.371094 -84.058594 C 33.160156 -93.984375 32.734375 -103.699219 31.890625 -113.414062 C 38.648438 -113.835938 47.941406 -114.257812 57.65625 -112.148438 C 63.359375 -111.089844 72.863281 -110.878906 72.863281 -105.179688 C 72.863281 -95.886719 41.816406 -86.59375 33.371094 -84.058594 Z M 33.371094 -84.058594 "/></g></g></g><g fill="#2c3c49" fill-opacity="0.4"><g transform="translate(461.823052, 412.850385)"><g><path d="M 19.21875 0 C 29.777344 0 39.917969 -6.96875 52.800781 -6.96875 C 59.769531 -6.96875 69.273438 -5.070312 78.777344 -1.902344 C 84.902344 -1.902344 91.238281 -7.8125 91.238281 -13.515625 C 91.238281 -23.019531 69.90625 -27.878906 54.699219 -27.878906 C 47.308594 -27.878906 39.917969 -26.824219 33.582031 -25.34375 C 36.960938 -50.898438 36.75 -85.957031 32.3125 -113.625 C 31.257812 -119.75 28.300781 -124.820312 23.019531 -124.820312 C 17.320312 -124.820312 11.40625 -120.59375 11.40625 -112.148438 C 11.40625 -107.289062 12.882812 -102.011719 13.304688 -97.574219 C 16.683594 -70.964844 15.207031 -48.789062 13.726562 -32.523438 C 12.882812 -25.34375 10.558594 -17.742188 10.558594 -10.558594 C 10.558594 -2.535156 14.363281 0 19.21875 0 Z M 19.21875 0 "/></g></g></g><g fill="#ffffff" fill-opacity="1"><g transform="translate(452.489164, 403.51649)"><g><path d="M 19.21875 0 C 29.777344 0 39.917969 -6.96875 52.800781 -6.96875 C 59.769531 -6.96875 69.273438 -5.070312 78.777344 -1.902344 C 84.902344 -1.902344 91.238281 -7.8125 91.238281 -13.515625 C 91.238281 -23.019531 69.90625 -27.878906 54.699219 -27.878906 C 47.308594 -27.878906 39.917969 -26.824219 33.582031 -25.34375 C 36.960938 -50.898438 36.75 -85.957031 32.3125 -113.625 C 31.257812 -119.75 28.300781 -124.820312 23.019531 -124.820312 C 17.320312 -124.820312 11.40625 -120.59375 11.40625 -112.148438 C 11.40625 -107.289062 12.882812 -102.011719 13.304688 -97.574219 C 16.683594 -70.964844 15.207031 -48.789062 13.726562 -32.523438 C 12.882812 -25.34375 10.558594 -17.742188 10.558594 -10.558594 C 10.558594 -2.535156 14.363281 0 19.21875 0 Z M 19.21875 0 "/></g></g></g><g fill="#2c3c49" fill-opacity="0.4"><g transform="translate(566.72448, 413.236783)"><g><path d="M 83.847656 -0.421875 C 90.183594 -0.421875 93.773438 -3.378906 93.773438 -9.714844 C 93.773438 -12.039062 90.605469 -34.636719 88.28125 -46.253906 C 88.492188 -55.546875 74.976562 -95.460938 70.964844 -105.390625 C 70.328125 -107.289062 69.695312 -109.402344 68.851562 -111.726562 C 66.527344 -119.539062 63.359375 -129.464844 58.082031 -133.480469 C 56.601562 -134.746094 54.914062 -135.378906 53.222656 -135.378906 C 51.742188 -135.378906 50.476562 -134.957031 49 -134.324219 C 47.730469 -133.902344 46.464844 -133.480469 45.40625 -133.265625 C 43.085938 -132.84375 40.972656 -132.421875 39.496094 -130.3125 C 34.425781 -124.1875 31.46875 -115.105469 28.933594 -106.867188 L 27.035156 -101.164062 C 23.441406 -91.027344 20.699219 -80.679688 18.375 -70.753906 C 15.839844 -60.402344 14.152344 -50.054688 13.09375 -39.496094 L 12.460938 -34.847656 C 11.828125 -28.722656 10.984375 -22.175781 10.984375 -15.839844 C 10.984375 -13.304688 11.195312 -10.984375 11.40625 -8.660156 C 12.039062 -4.011719 16.050781 -0.632812 21.753906 -0.632812 C 26.398438 -0.632812 31.257812 -3.167969 32.101562 -8.660156 C 32.523438 -11.195312 32.523438 -15.207031 32.734375 -19.429688 C 32.734375 -23.441406 32.949219 -27.457031 33.160156 -30.835938 L 33.160156 -33.582031 C 33.160156 -36.328125 33.160156 -38.015625 37.59375 -38.015625 C 45.832031 -38.226562 49.632812 -38.226562 54.066406 -38.015625 L 62.726562 -38.015625 C 66.527344 -38.015625 68.429688 -39.070312 69.695312 -34.003906 L 70.328125 -27.457031 C 71.175781 -16.261719 72.441406 -0.421875 83.847656 -0.421875 Z M 64.417969 -58.714844 C 58.925781 -58.925781 53.644531 -59.136719 48.363281 -59.136719 L 43.085938 -59.136719 C 40.972656 -58.925781 39.070312 -58.925781 37.171875 -58.925781 C 39.917969 -74.132812 44.351562 -88.703125 49.84375 -102.855469 C 55.546875 -88.914062 60.402344 -74.132812 64.417969 -58.714844 Z M 64.417969 -58.714844 "/></g></g></g><g fill="#ffffff" fill-opacity="1"><g transform="translate(557.390616, 403.902886)"><g><path d="M 83.847656 -0.421875 C 90.183594 -0.421875 93.773438 -3.378906 93.773438 -9.714844 C 93.773438 -12.039062 90.605469 -34.636719 88.28125 -46.253906 C 88.492188 -55.546875 74.976562 -95.460938 70.964844 -105.390625 C 70.328125 -107.289062 69.695312 -109.402344 68.851562 -111.726562 C 66.527344 -119.539062 63.359375 -129.464844 58.082031 -133.480469 C 56.601562 -134.746094 54.914062 -135.378906 53.222656 -135.378906 C 51.742188 -135.378906 50.476562 -134.957031 49 -134.324219 C 47.730469 -133.902344 46.464844 -133.480469 45.40625 -133.265625 C 43.085938 -132.84375 40.972656 -132.421875 39.496094 -130.3125 C 34.425781 -124.1875 31.46875 -115.105469 28.933594 -106.867188 L 27.035156 -101.164062 C 23.441406 -91.027344 20.699219 -80.679688 18.375 -70.753906 C 15.839844 -60.402344 14.152344 -50.054688 13.09375 -39.496094 L 12.460938 -34.847656 C 11.828125 -28.722656 10.984375 -22.175781 10.984375 -15.839844 C 10.984375 -13.304688 11.195312 -10.984375 11.40625 -8.660156 C 12.039062 -4.011719 16.050781 -0.632812 21.753906 -0.632812 C 26.398438 -0.632812 31.257812 -3.167969 32.101562 -8.660156 C 32.523438 -11.195312 32.523438 -15.207031 32.734375 -19.429688 C 32.734375 -23.441406 32.949219 -27.457031 33.160156 -30.835938 L 33.160156 -33.582031 C 33.160156 -36.328125 33.160156 -38.015625 37.59375 -38.015625 C 45.832031 -38.226562 49.632812 -38.226562 54.066406 -38.015625 L 62.726562 -38.015625 C 66.527344 -38.015625 68.429688 -39.070312 69.695312 -34.003906 L 70.328125 -27.457031 C 71.175781 -16.261719 72.441406 -0.421875 83.847656 -0.421875 Z M 64.417969 -58.714844 C 58.925781 -58.925781 53.644531 -59.136719 48.363281 -59.136719 L 43.085938 -59.136719 C 40.972656 -58.925781 39.070312 -58.925781 37.171875 -58.925781 C 39.917969 -74.132812 44.351562 -88.703125 49.84375 -102.855469 C 55.546875 -88.914062 60.402344 -74.132812 64.417969 -58.714844 Z M 64.417969 -58.714844 "/></g></g></g><g fill="#2c3c49" fill-opacity="0.4"><g transform="translate(661.261787, 412.850385)"><g><path d="M 66.316406 -1.265625 C 73.074219 -1.265625 78.144531 -6.546875 77.511719 -12.882812 L 69.90625 -75.820312 C 69.90625 -76.242188 118.484375 -119.328125 118.484375 -138.546875 C 118.484375 -144.671875 113.203125 -147.839844 108.769531 -147.839844 C 98.84375 -147.839844 92.292969 -132.421875 87.648438 -125.875 C 79.621094 -114.894531 69.90625 -104.753906 60.191406 -95.460938 C 52.800781 -104.542969 45.621094 -113.414062 38.226562 -122.285156 C 33.160156 -128.621094 25.132812 -144.460938 15.207031 -144.460938 C 9.503906 -144.460938 4.644531 -139.816406 4.644531 -133.902344 C 4.644531 -128.832031 9.082031 -124.609375 12.039062 -121.019531 C 19.640625 -111.726562 27.667969 -102.222656 46.675781 -78.566406 C 50.265625 -74.34375 49.632812 -68.007812 50.265625 -62.515625 C 51.742188 -49.84375 53.011719 -41.816406 54.488281 -29.144531 C 55.335938 -21.542969 53.855469 -1.265625 66.316406 -1.265625 Z M 66.316406 -1.265625 "/></g></g></g><g fill="#ffffff" fill-opacity="1"><g transform="translate(651.927923, 403.51649)"><g><path d="M 66.316406 -1.265625 C 73.074219 -1.265625 78.144531 -6.546875 77.511719 -12.882812 L 69.90625 -75.820312 C 69.90625 -76.242188 118.484375 -119.328125 118.484375 -138.546875 C 118.484375 -144.671875 113.203125 -147.839844 108.769531 -147.839844 C 98.84375 -147.839844 92.292969 -132.421875 87.648438 -125.875 C 79.621094 -114.894531 69.90625 -104.753906 60.191406 -95.460938 C 52.800781 -104.542969 45.621094 -113.414062 38.226562 -122.285156 C 33.160156 -128.621094 25.132812 -144.460938 15.207031 -144.460938 C 9.503906 -144.460938 4.644531 -139.816406 4.644531 -133.902344 C 4.644531 -128.832031 9.082031 -124.609375 12.039062 -121.019531 C 19.640625 -111.726562 27.667969 -102.222656 46.675781 -78.566406 C 50.265625 -74.34375 49.632812 -68.007812 50.265625 -62.515625 C 51.742188 -49.84375 53.011719 -41.816406 54.488281 -29.144531 C 55.335938 -21.542969 53.855469 -1.265625 66.316406 -1.265625 Z M 66.316406 -1.265625 "/></g></g></g><g clip-path="url(#f32d8975fc)"><g clip-path="url(#6b3b828f75)"><g clip-path="url(#6eca4aedc8)"><path fill="#a6cbc8" d="M 352.277344 683.382812 C 367.34375 669.167969 385.105469 657.765625 404.832031 653.664062 C 414.765625 651.511719 424.773438 651.039062 434.863281 652.253906 C 445.117188 653.460938 455.078125 655.875 464.746094 659.488281 C 484.347656 666.546875 502.894531 677.171875 521.269531 688.261719 L 548.949219 705.199219 C 558.191406 710.832031 567.480469 716.507812 577.042969 721.886719 C 586.628906 727.421875 596.484375 732.425781 606.613281 736.890625 C 611.679688 739.214844 616.976562 741.113281 622.253906 743.070312 C 627.625 744.882812 633.074219 746.40625 638.605469 747.648438 C 644.183594 748.910156 649.816406 749.839844 655.503906 750.4375 L 664.125 750.847656 L 666.277344 750.945312 L 668.4375 750.855469 L 672.75 750.632812 L 677.070312 750.410156 C 678.507812 750.332031 679.921875 750.019531 681.351562 749.835938 C 684.195312 749.378906 687.066406 749.019531 689.890625 748.46875 C 695.503906 747.214844 701.007812 745.589844 706.402344 743.589844 C 709.050781 742.550781 711.855469 741.679688 714.371094 740.484375 L 721.949219 736.949219 C 727.078125 734.714844 731.839844 731.847656 736.765625 729.265625 C 741.65625 726.621094 746.269531 723.566406 751.039062 720.746094 C 755.652344 717.714844 760.25 714.65625 764.785156 711.53125 C 782.796875 698.859375 799.664062 684.988281 816.433594 671.328125 C 833.199219 657.667969 849.855469 644.117188 867.503906 632.257812 C 885.070312 620.320312 903.703125 610.382812 923.398438 602.441406 C 943.058594 594.46875 963.34375 588.675781 984.25 585.066406 C 1005.089844 581.496094 1026.019531 580.792969 1047.050781 582.953125 L 1054.839844 583.867188 L 1062.566406 585.214844 L 1066.433594 585.882812 L 1070.246094 586.785156 L 1077.871094 588.585938 C 1088.003906 591.410156 1097.90625 594.890625 1107.578125 599.027344 C 1127.097656 607.316406 1145.417969 617.714844 1162.539062 630.21875 C 1179.746094 642.691406 1195.601562 656.691406 1210.105469 672.21875 C 1224.597656 687.789062 1237.636719 704.5 1249.21875 722.339844 L 1236.910156 730.15625 C 1225.800781 713.054688 1213.296875 697.039062 1199.402344 682.113281 C 1185.53125 667.277344 1170.375 653.898438 1153.933594 641.976562 C 1137.691406 630.117188 1120.3125 620.265625 1101.800781 612.410156 C 1097.269531 610.347656 1092.578125 608.722656 1087.933594 607.019531 C 1085.605469 606.09375 1083.292969 605.445312 1080.980469 604.746094 C 1078.667969 604.050781 1076.363281 603.316406 1074.035156 602.660156 L 1066.964844 600.996094 L 1063.429688 600.15625 L 1059.839844 599.542969 L 1052.667969 598.285156 L 1045.40625 597.453125 C 1025.699219 595.441406 1006.082031 596.117188 986.554688 599.476562 C 966.703125 602.917969 947.441406 608.429688 928.773438 616.011719 C 924.132812 618.03125 919.410156 619.84375 914.855469 622.082031 L 907.980469 625.3125 L 901.402344 628.78125 C 892.519531 633.523438 883.914062 638.726562 875.59375 644.398438 C 858.65625 655.777344 842.304688 669.09375 825.5625 682.707031 C 808.824219 696.324219 791.695312 710.441406 773.0625 723.546875 C 768.359375 726.789062 763.582031 729.972656 758.769531 733.113281 L 751.335938 737.632812 C 748.851562 739.132812 746.414062 740.679688 743.796875 742.035156 C 738.601562 744.777344 733.589844 747.757812 728.140625 750.148438 L 720.089844 753.898438 C 718.8125 754.542969 717.242188 755.082031 715.761719 755.652344 L 711.273438 757.328125 C 705.222656 759.558594 699.050781 761.371094 692.753906 762.769531 C 689.570312 763.371094 686.335938 763.8125 683.125 764.308594 C 681.511719 764.511719 679.914062 764.863281 678.289062 764.933594 L 673.410156 765.203125 C 666.9375 765.558594 660.472656 765.472656 654.015625 764.941406 C 647.703125 764.273438 641.453125 763.238281 635.261719 761.835938 C 632.195312 761.160156 629.125 760.488281 626.214844 759.535156 C 623.277344 758.632812 620.285156 757.800781 617.394531 756.820312 L 608.890625 753.664062 C 606.023438 752.644531 603.398438 751.359375 600.644531 750.214844 C 590.058594 745.539062 579.757812 740.308594 569.738281 734.523438 C 559.882812 728.960938 550.464844 723.207031 541.246094 717.589844 L 513.582031 700.660156 C 495.476562 689.714844 477.613281 679.585938 459.675781 673.160156 C 451.089844 669.941406 442.238281 667.792969 433.128906 666.71875 C 424.621094 665.6875 416.179688 666.085938 407.800781 667.90625 C 391.425781 671.289062 376.007812 680.996094 362.195312 694.011719 Z M 352.277344 683.382812 " fill-opacity="1" fill-rule="nonzero"/></g></g></g><g clip-path="url(#29506c7a83)"><g clip-path="url(#1cdf2dbe56)"><g clip-path="url(#965126ded9)"><path fill="#fcd027" d="M 342.605469 673.011719 C 350.871094 665.125 359.917969 658.261719 369.738281 652.425781 C 379.789062 646.472656 390.519531 642.253906 401.933594 639.777344 C 407.632812 638.539062 413.390625 637.785156 419.214844 637.515625 C 425.003906 637.292969 430.777344 637.511719 436.53125 638.164062 C 447.894531 639.5 458.933594 642.167969 469.648438 646.167969 C 490.859375 653.835938 510.070312 664.941406 528.703125 676.171875 L 556.390625 693.125 C 565.636719 698.753906 574.8125 704.359375 584.097656 709.585938 C 593.257812 714.886719 602.679688 719.667969 612.363281 723.9375 C 617.136719 726.132812 622.03125 727.867188 626.90625 729.675781 C 631.789062 731.320312 636.75 732.703125 641.78125 733.828125 C 646.757812 734.957031 651.789062 735.789062 656.867188 736.324219 L 664.453125 736.683594 L 666.351562 736.777344 L 668.25 736.679688 L 672.027344 736.480469 L 675.8125 736.300781 C 677.074219 736.226562 678.3125 735.945312 679.5625 735.78125 C 682.050781 735.371094 684.5625 735.078125 687.042969 734.589844 C 691.992188 733.476562 696.847656 732.035156 701.605469 730.261719 C 703.988281 729.3125 706.382812 728.621094 708.757812 727.480469 L 715.882812 724.152344 C 720.691406 722.070312 725.21875 719.320312 729.878906 716.886719 C 734.507812 714.386719 738.9375 711.460938 743.476562 708.773438 C 747.902344 705.851562 752.324219 702.921875 756.699219 699.90625 C 774.109375 687.65625 790.722656 674.011719 807.519531 660.328125 C 824.316406 646.640625 841.28125 632.824219 859.605469 620.507812 C 868.769531 614.265625 878.246094 608.542969 888.035156 603.328125 L 895.421875 599.445312 L 902.921875 595.921875 C 907.886719 593.496094 913.054688 591.5 918.125 589.300781 C 938.75 580.9375 960.027344 574.867188 981.960938 571.089844 C 1004.074219 567.308594 1026.285156 566.570312 1048.597656 568.875 L 1056.925781 569.851562 L 1065.1875 571.289062 L 1069.320312 572.007812 L 1073.417969 572.972656 L 1081.589844 574.910156 C 1092.351562 577.898438 1102.867188 581.585938 1113.136719 585.972656 C 1133.636719 594.679688 1152.878906 605.597656 1170.867188 618.726562 C 1188.8125 631.738281 1205.347656 646.339844 1220.476562 662.539062 C 1235.546875 678.730469 1249.105469 696.101562 1261.148438 714.652344 L 1248.835938 722.460938 C 1237.265625 704.644531 1224.242188 687.960938 1209.769531 672.410156 C 1195.273438 656.90625 1179.433594 642.925781 1162.242188 630.46875 C 1145.140625 617.996094 1126.84375 607.621094 1107.351562 599.351562 C 1097.703125 595.230469 1087.824219 591.769531 1077.71875 588.960938 L 1070.101562 587.15625 L 1066.289062 586.253906 L 1062.4375 585.597656 L 1054.722656 584.25 L 1046.941406 583.351562 C 1025.945312 581.199219 1005.050781 581.90625 984.246094 585.472656 C 963.371094 589.085938 943.117188 594.875 923.484375 602.84375 C 903.816406 610.777344 885.214844 620.703125 867.671875 632.625 C 850.058594 644.46875 833.410156 658.042969 816.636719 671.679688 C 799.863281 685.316406 782.996094 699.214844 764.96875 711.894531 C 760.429688 715.019531 755.832031 718.082031 751.210938 721.113281 C 746.4375 723.945312 741.816406 726.996094 736.914062 729.636719 C 731.988281 732.230469 727.214844 735.09375 722.078125 737.332031 L 714.488281 740.875 C 711.964844 742.066406 709.152344 742.941406 706.496094 743.984375 C 701.082031 745.984375 695.5625 747.617188 689.929688 748.875 C 687.09375 749.417969 684.214844 749.789062 681.359375 750.242188 C 679.925781 750.425781 678.507812 750.75 677.0625 750.8125 L 672.734375 751.042969 L 668.398438 751.253906 C 667.675781 751.28125 666.953125 751.339844 666.234375 751.339844 L 664.074219 751.242188 L 655.429688 750.828125 C 649.726562 750.222656 644.078125 749.289062 638.484375 748.019531 C 632.941406 746.777344 627.476562 745.246094 622.097656 743.425781 C 616.8125 741.484375 611.511719 739.570312 606.4375 737.246094 C 596.296875 732.773438 586.425781 727.761719 576.832031 722.214844 C 567.257812 716.824219 557.960938 711.136719 548.722656 705.515625 L 521.050781 688.589844 C 502.683594 677.507812 484.15625 666.894531 464.601562 659.855469 C 454.964844 656.253906 445.035156 653.851562 434.8125 652.648438 C 424.765625 651.441406 414.796875 651.910156 404.90625 654.058594 C 385.273438 658.140625 367.570312 669.5 352.542969 683.679688 Z M 342.605469 673.011719 " fill-opacity="1" fill-rule="nonzero"/></g></g></g><g clip-path="url(#1e33f5e161)"><g clip-path="url(#70e03d8531)"><g clip-path="url(#8a217bd93e)"><path fill="#fa7e9e" d="M 332.78125 662.457031 C 341.847656 653.804688 351.777344 646.285156 362.5625 639.898438 C 373.945312 633.183594 386.089844 628.433594 399.003906 625.644531 C 405.496094 624.246094 412.058594 623.390625 418.695312 623.085938 C 425.230469 622.839844 431.742188 623.089844 438.238281 623.832031 C 444.5625 624.554688 450.816406 625.675781 456.996094 627.195312 C 463.023438 628.777344 468.960938 630.527344 474.632812 632.628906 C 497.480469 640.921875 517.355469 652.507812 536.253906 663.878906 L 563.972656 680.835938 C 573.222656 686.464844 582.273438 692 591.277344 697.0625 C 595.78125 699.679688 600.273438 701.996094 604.761719 704.382812 C 609.25 706.550781 613.726562 708.910156 618.214844 710.738281 C 622.695312 712.808594 627.179688 714.363281 631.648438 716.042969 C 636.039062 717.511719 640.496094 718.75 645.015625 719.757812 C 649.386719 720.75 653.800781 721.476562 658.257812 721.949219 L 664.800781 722.25 L 666.4375 722.339844 L 668.0625 722.25 L 671.300781 722.082031 L 674.539062 721.945312 C 675.613281 721.871094 676.671875 721.625 677.742188 721.476562 C 679.867188 721.105469 682.019531 720.898438 684.152344 720.457031 C 688.433594 719.484375 692.628906 718.226562 696.738281 716.6875 L 699.859375 715.535156 C 700.957031 715.171875 702.03125 714.734375 703.070312 714.226562 L 709.734375 711.109375 C 714.230469 709.183594 718.507812 706.550781 722.894531 704.273438 C 727.261719 701.910156 731.496094 699.109375 735.808594 696.5625 C 740.046875 693.753906 744.289062 690.960938 748.496094 688.042969 C 765.308594 676.230469 781.664062 662.796875 798.484375 649.085938 C 815.308594 635.371094 832.59375 621.292969 851.617188 608.5 L 858.816406 603.769531 L 862.425781 601.414062 L 866.167969 599.183594 C 871.15625 596.207031 876.097656 593.183594 881.375 590.539062 L 889.164062 586.449219 L 896.984375 582.777344 C 902.15625 580.253906 907.542969 578.160156 912.835938 575.878906 C 934.445312 567.128906 956.738281 560.785156 979.71875 556.84375 C 1003.128906 552.847656 1026.644531 552.082031 1050.261719 554.535156 C 1053.21875 554.882812 1056.175781 555.191406 1059.128906 555.582031 L 1067.945312 557.109375 L 1072.339844 557.910156 L 1076.707031 558.933594 L 1085.433594 561.003906 C 1096.835938 564.175781 1107.976562 568.085938 1118.859375 572.734375 C 1140.355469 581.871094 1160.539062 593.324219 1179.402344 607.09375 C 1198 620.695312 1215.195312 635.886719 1230.984375 652.664062 C 1246.773438 669.445312 1260.890625 687.53125 1273.332031 706.921875 L 1261.019531 714.722656 C 1248.980469 696.179688 1235.429688 678.816406 1220.363281 662.632812 C 1205.242188 646.441406 1188.710938 631.84375 1170.773438 618.839844 C 1152.792969 605.71875 1133.558594 594.816406 1113.066406 586.121094 C 1102.804688 581.730469 1092.296875 578.039062 1081.542969 575.050781 L 1073.375 573.113281 L 1069.292969 572.148438 L 1065.160156 571.429688 L 1056.898438 569.992188 L 1048.574219 569.023438 C 1026.277344 566.71875 1004.078125 567.460938 981.980469 571.242188 C 960.058594 575.015625 938.789062 581.078125 918.171875 589.4375 C 913.101562 591.632812 907.941406 593.628906 902.976562 596.054688 L 895.476562 599.578125 L 888.097656 603.460938 C 878.3125 608.671875 868.839844 614.394531 859.675781 620.628906 C 841.363281 632.945312 824.410156 646.777344 807.601562 660.441406 C 790.792969 674.105469 774.191406 687.777344 756.773438 700.023438 C 752.398438 703.042969 747.972656 705.976562 743.546875 708.894531 C 739 711.585938 734.570312 714.515625 729.9375 717.015625 C 725.277344 719.453125 720.75 722.203125 715.933594 724.28125 L 708.804688 727.613281 C 706.429688 728.753906 704.027344 729.449219 701.644531 730.398438 C 696.882812 732.171875 692.019531 733.617188 687.058594 734.730469 C 684.582031 735.21875 682.066406 735.511719 679.570312 735.925781 C 678.316406 736.082031 677.078125 736.375 675.820312 736.441406 L 672.03125 736.625 L 668.246094 736.824219 L 666.34375 736.921875 L 664.445312 736.828125 L 656.847656 736.46875 C 651.765625 735.9375 646.730469 735.105469 641.742188 733.980469 C 636.707031 732.855469 631.742188 731.46875 626.855469 729.824219 C 621.976562 728.011719 617.078125 726.277344 612.300781 724.078125 C 602.613281 719.808594 593.183594 715.019531 584.019531 709.722656 C 574.726562 704.492188 565.554688 698.882812 556.308594 693.257812 L 528.609375 676.308594 C 509.976562 665.078125 490.777344 653.980469 469.582031 646.320312 C 458.878906 642.324219 447.851562 639.65625 436.503906 638.320312 C 430.753906 637.667969 424.988281 637.453125 419.207031 637.675781 C 413.394531 637.945312 407.640625 638.699219 401.953125 639.933594 C 390.554688 642.410156 379.835938 646.621094 369.800781 652.570312 C 359.992188 658.402344 350.957031 665.257812 342.699219 673.136719 Z M 332.78125 662.457031 " fill-opacity="1" fill-rule="nonzero"/></g></g></g><g fill="#2c3c49" fill-opacity="0.4"><g transform="translate(284.095478, 610.344133)"><g><path d="M 31.144531 0 C 32.933594 0 36.519531 -0.671875 38.984375 -2.015625 C 46.828125 -6.496094 43.691406 -22.179688 43.019531 -31.816406 C 42.570312 -46.378906 41.898438 -60.941406 41 -75.28125 C 45.480469 -74.609375 52.203125 -72.816406 58.253906 -72.816406 C 65.871094 -72.816406 71.023438 -75.503906 71.023438 -84.914062 C 71.023438 -98.132812 52.875 -95.667969 39.65625 -97.460938 C 39.207031 -100.824219 38.984375 -104.183594 37.417969 -125.917969 C 47.050781 -125.691406 56.910156 -125.246094 66.765625 -124.347656 C 71.472656 -124.125 78.417969 -121.882812 84.242188 -121.882812 C 90.292969 -121.882812 95.222656 -124.574219 95.222656 -130.847656 C 95.222656 -138.015625 91.1875 -143.839844 85.8125 -144.511719 C 70.574219 -146.753906 41 -148.546875 34.503906 -148.546875 C 12.769531 -148.546875 11.203125 -142.945312 11.203125 -132.414062 C 11.203125 -126.363281 12.769531 -120.089844 13.21875 -114.714844 C 16.355469 -81.105469 16.804688 -64.078125 16.804688 -29.574219 C 16.804688 -15.90625 18.371094 0 31.144531 0 Z M 31.144531 0 "/></g></g></g><g fill="#ffffff" fill-opacity="1"><g transform="translate(274.193719, 600.442382)"><g><path d="M 31.144531 0 C 32.933594 0 36.519531 -0.671875 38.984375 -2.015625 C 46.828125 -6.496094 43.691406 -22.179688 43.019531 -31.816406 C 42.570312 -46.378906 41.898438 -60.941406 41 -75.28125 C 45.480469 -74.609375 52.203125 -72.816406 58.253906 -72.816406 C 65.871094 -72.816406 71.023438 -75.503906 71.023438 -84.914062 C 71.023438 -98.132812 52.875 -95.667969 39.65625 -97.460938 C 39.207031 -100.824219 38.984375 -104.183594 37.417969 -125.917969 C 47.050781 -125.691406 56.910156 -125.246094 66.765625 -124.347656 C 71.472656 -124.125 78.417969 -121.882812 84.242188 -121.882812 C 90.292969 -121.882812 95.222656 -124.574219 95.222656 -130.847656 C 95.222656 -138.015625 91.1875 -143.839844 85.8125 -144.511719 C 70.574219 -146.753906 41 -148.546875 34.503906 -148.546875 C 12.769531 -148.546875 11.203125 -142.945312 11.203125 -132.414062 C 11.203125 -126.363281 12.769531 -120.089844 13.21875 -114.714844 C 16.355469 -81.105469 16.804688 -64.078125 16.804688 -29.574219 C 16.804688 -15.90625 18.371094 0 31.144531 0 Z M 31.144531 0 "/></g></g></g><g fill="#2c3c49" fill-opacity="0.4"><g transform="translate(422.563739, 610.366957)"><g><path d="M 24.644531 0 C 31.589844 0 38.535156 -5.378906 38.535156 -12.996094 C 38.535156 -30.023438 37.863281 -47.050781 37.640625 -64.300781 C 37.417969 -81.332031 36.519531 -122.78125 36.519531 -125.246094 C 36.519531 -131.292969 41.671875 -129.949219 41.671875 -137.792969 C 41.671875 -142.496094 38.761719 -146.753906 34.054688 -148.097656 C 28.902344 -149.21875 22.628906 -152.578125 17.476562 -150.113281 C 11.875 -147.875 9.859375 -141.824219 12.324219 -136 C 13.890625 -132.191406 15.234375 -133.085938 15.234375 -128.382812 C 15.460938 -123.453125 15.460938 -118.523438 15.460938 -113.816406 L 16.132812 -88.050781 C 16.355469 -71.023438 16.578125 -53.773438 17.027344 -36.746094 C 17.027344 -30.917969 18.820312 -22.40625 15.234375 -16.578125 C 14.113281 -14.789062 13.441406 -12.769531 13.441406 -10.976562 C 13.441406 -5.378906 17.925781 0 24.644531 0 Z M 24.644531 0 "/></g></g></g><g fill="#ffffff" fill-opacity="1"><g transform="translate(412.661981, 600.465206)"><g><path d="M 24.644531 0 C 31.589844 0 38.535156 -5.378906 38.535156 -12.996094 C 38.535156 -30.023438 37.863281 -47.050781 37.640625 -64.300781 C 37.417969 -81.332031 36.519531 -122.78125 36.519531 -125.246094 C 36.519531 -131.292969 41.671875 -129.949219 41.671875 -137.792969 C 41.671875 -142.496094 38.761719 -146.753906 34.054688 -148.097656 C 28.902344 -149.21875 22.628906 -152.578125 17.476562 -150.113281 C 11.875 -147.875 9.859375 -141.824219 12.324219 -136 C 13.890625 -132.191406 15.234375 -133.085938 15.234375 -128.382812 C 15.460938 -123.453125 15.460938 -118.523438 15.460938 -113.816406 L 16.132812 -88.050781 C 16.355469 -71.023438 16.578125 -53.773438 17.027344 -36.746094 C 17.027344 -30.917969 18.820312 -22.40625 15.234375 -16.578125 C 14.113281 -14.789062 13.441406 -12.769531 13.441406 -10.976562 C 13.441406 -5.378906 17.925781 0 24.644531 0 Z M 24.644531 0 "/></g></g></g><g fill="#2c3c49" fill-opacity="0.4"><g transform="translate(523.066955, 610.366957)"><g><path d="M 57.804688 0 C 66.765625 0 74.160156 -2.464844 74.160156 -12.324219 C 74.160156 -17.699219 70.351562 -21.957031 64.75 -22.40625 C 60.269531 -22.851562 41.226562 -24.871094 37.640625 -25.09375 C 32.261719 -25.542969 33.832031 -24.644531 33.609375 -56.238281 C 33.832031 -61.164062 35.847656 -60.046875 40.328125 -60.941406 C 47.945312 -62.0625 62.957031 -59.148438 62.957031 -71.921875 C 62.957031 -75.058594 61.613281 -78.417969 59.597656 -80.660156 C 56.910156 -83.570312 53.324219 -84.691406 49.292969 -84.691406 C 44.136719 -84.691406 38.535156 -82.898438 34.054688 -82.226562 C 34.503906 -92.53125 34.953125 -102.617188 35.625 -112.921875 C 35.847656 -118.523438 44.808594 -120.089844 52.875 -120.089844 C 58.703125 -120.089844 63.628906 -118.972656 65.648438 -118.972656 C 72.144531 -118.972656 75.953125 -124.796875 75.953125 -130.621094 C 75.953125 -134.878906 73.710938 -139.359375 68.785156 -140.929688 C 58.925781 -143.839844 48.84375 -142.71875 38.089844 -140.480469 C 30.695312 -138.910156 16.578125 -135.101562 14.339844 -126.8125 C 10.304688 -112.25 11.203125 -35.175781 12.097656 -16.578125 C 12.546875 -6.273438 25.09375 -3.808594 32.933594 -3.136719 C 38.535156 -2.464844 48.84375 0 57.804688 0 Z M 57.804688 0 "/></g></g></g><g fill="#ffffff" fill-opacity="1"><g transform="translate(513.165155, 600.465206)"><g><path d="M 57.804688 0 C 66.765625 0 74.160156 -2.464844 74.160156 -12.324219 C 74.160156 -17.699219 70.351562 -21.957031 64.75 -22.40625 C 60.269531 -22.851562 41.226562 -24.871094 37.640625 -25.09375 C 32.261719 -25.542969 33.832031 -24.644531 33.609375 -56.238281 C 33.832031 -61.164062 35.847656 -60.046875 40.328125 -60.941406 C 47.945312 -62.0625 62.957031 -59.148438 62.957031 -71.921875 C 62.957031 -75.058594 61.613281 -78.417969 59.597656 -80.660156 C 56.910156 -83.570312 53.324219 -84.691406 49.292969 -84.691406 C 44.136719 -84.691406 38.535156 -82.898438 34.054688 -82.226562 C 34.503906 -92.53125 34.953125 -102.617188 35.625 -112.921875 C 35.847656 -118.523438 44.808594 -120.089844 52.875 -120.089844 C 58.703125 -120.089844 63.628906 -118.972656 65.648438 -118.972656 C 72.144531 -118.972656 75.953125 -124.796875 75.953125 -130.621094 C 75.953125 -134.878906 73.710938 -139.359375 68.785156 -140.929688 C 58.925781 -143.839844 48.84375 -142.71875 38.089844 -140.480469 C 30.695312 -138.910156 16.578125 -135.101562 14.339844 -126.8125 C 10.304688 -112.25 11.203125 -35.175781 12.097656 -16.578125 C 12.546875 -6.273438 25.09375 -3.808594 32.933594 -3.136719 C 38.535156 -2.464844 48.84375 0 57.804688 0 Z M 57.804688 0 "/></g></g></g><g fill="#2c3c49" fill-opacity="0.4"><g transform="translate(627.465065, 610.344133)"><g><path d="M 20.386719 0 C 31.589844 0 42.34375 -7.394531 56.011719 -7.394531 C 63.40625 -7.394531 73.488281 -5.378906 83.570312 -2.015625 C 90.070312 -2.015625 96.789062 -8.289062 96.789062 -14.339844 C 96.789062 -24.421875 74.160156 -29.574219 58.027344 -29.574219 C 50.1875 -29.574219 42.34375 -28.453125 35.625 -26.886719 C 39.207031 -53.996094 38.984375 -91.1875 34.28125 -120.539062 C 33.160156 -127.035156 30.023438 -132.414062 24.421875 -132.414062 C 18.371094 -132.414062 12.097656 -127.933594 12.097656 -118.972656 C 12.097656 -113.816406 13.667969 -108.214844 14.113281 -103.511719 C 17.699219 -75.28125 16.132812 -51.753906 14.5625 -34.503906 C 13.667969 -26.886719 11.203125 -18.820312 11.203125 -11.203125 C 11.203125 -2.6875 15.234375 0 20.386719 0 Z M 20.386719 0 "/></g></g></g><g fill="#ffffff" fill-opacity="1"><g transform="translate(617.563313, 600.442382)"><g><path d="M 20.386719 0 C 31.589844 0 42.34375 -7.394531 56.011719 -7.394531 C 63.40625 -7.394531 73.488281 -5.378906 83.570312 -2.015625 C 90.070312 -2.015625 96.789062 -8.289062 96.789062 -14.339844 C 96.789062 -24.421875 74.160156 -29.574219 58.027344 -29.574219 C 50.1875 -29.574219 42.34375 -28.453125 35.625 -26.886719 C 39.207031 -53.996094 38.984375 -91.1875 34.28125 -120.539062 C 33.160156 -127.035156 30.023438 -132.414062 24.421875 -132.414062 C 18.371094 -132.414062 12.097656 -127.933594 12.097656 -118.972656 C 12.097656 -113.816406 13.667969 -108.214844 14.113281 -103.511719 C 17.699219 -75.28125 16.132812 -51.753906 14.5625 -34.503906 C 13.667969 -26.886719 11.203125 -18.820312 11.203125 -11.203125 C 11.203125 -2.6875 15.234375 0 20.386719 0 Z M 20.386719 0 "/></g></g></g><g fill="#2c3c49" fill-opacity="0.4"><g transform="translate(729.311348, 610.366957)"><g><path d="M 27.78125 0 C 31.144531 0 33.160156 -1.121094 36.296875 -1.121094 C 39.207031 -1.121094 42.121094 -0.671875 45.035156 -0.671875 C 55.789062 -0.671875 66.765625 -2.6875 76.625 -6.945312 C 112.699219 -21.507812 127.261719 -57.582031 121.4375 -86.933594 C 115.386719 -118.972656 86.484375 -146.082031 53.101562 -146.082031 C 40.777344 -145.632812 13.890625 -138.464844 11.875 -126.8125 C 11.425781 -124.125 11.203125 -121.210938 11.203125 -118.300781 C 11.203125 -109.335938 12.769531 -99.703125 13.21875 -91.1875 C 13.667969 -77.746094 15.90625 -25.542969 16.355469 -14.339844 C 16.578125 -6.722656 19.042969 0 27.78125 0 Z M 47.050781 -24.644531 L 40.105469 -24.871094 C 38.984375 -54.21875 37.640625 -83.796875 36.519531 -113.371094 C 36.296875 -119.867188 45.257812 -121.660156 53.101562 -121.660156 C 64.75 -121.660156 76.402344 -117.179688 86.257812 -105.527344 C 94.550781 -95.894531 98.132812 -85.140625 98.132812 -74.609375 C 98.132812 -48.617188 76.175781 -24.644531 47.050781 -24.644531 Z M 47.050781 -24.644531 "/></g></g></g><g fill="#ffffff" fill-opacity="1"><g transform="translate(719.409597, 600.465206)"><g><path d="M 27.78125 0 C 31.144531 0 33.160156 -1.121094 36.296875 -1.121094 C 39.207031 -1.121094 42.121094 -0.671875 45.035156 -0.671875 C 55.789062 -0.671875 66.765625 -2.6875 76.625 -6.945312 C 112.699219 -21.507812 127.261719 -57.582031 121.4375 -86.933594 C 115.386719 -118.972656 86.484375 -146.082031 53.101562 -146.082031 C 40.777344 -145.632812 13.890625 -138.464844 11.875 -126.8125 C 11.425781 -124.125 11.203125 -121.210938 11.203125 -118.300781 C 11.203125 -109.335938 12.769531 -99.703125 13.21875 -91.1875 C 13.667969 -77.746094 15.90625 -25.542969 16.355469 -14.339844 C 16.578125 -6.722656 19.042969 0 27.78125 0 Z M 47.050781 -24.644531 L 40.105469 -24.871094 C 38.984375 -54.21875 37.640625 -83.796875 36.519531 -113.371094 C 36.296875 -119.867188 45.257812 -121.660156 53.101562 -121.660156 C 64.75 -121.660156 76.402344 -117.179688 86.257812 -105.527344 C 94.550781 -95.894531 98.132812 -85.140625 98.132812 -74.609375 C 98.132812 -48.617188 76.175781 -24.644531 47.050781 -24.644531 Z M 47.050781 -24.644531 "/></g></g></g><g clip-path="url(#cdc750b543)"><g clip-path="url(#d8b5dd7442)"><g clip-path="url(#dcf7660184)"><path fill="#ebd47a" d="M 1311.761719 251.5 C 1256.941406 291.777344 1248.433594 327.550781 1282.179688 384.964844 C 1215.703125 389.832031 1191.53125 416.339844 1192.796875 482.980469 C 1132.523438 454.660156 1097.683594 466.421875 1062.617188 524.714844 C 1022.339844 469.894531 986.566406 461.386719 929.152344 495.128906 C 924.285156 428.65625 897.777344 404.480469 831.136719 405.75 C 859.457031 345.476562 847.695312 310.632812 789.402344 275.570312 C 844.222656 235.292969 852.730469 199.515625 818.988281 142.101562 C 885.460938 137.238281 909.636719 110.726562 908.367188 44.085938 C 968.640625 72.410156 1003.484375 60.644531 1038.546875 2.355469 C 1078.824219 57.175781 1114.601562 65.683594 1172.011719 31.9375 C 1176.878906 98.414062 1203.390625 122.585938 1270.03125 121.320312 C 1241.707031 181.59375 1253.472656 216.433594 1311.761719 251.5 Z M 1311.761719 251.5 " fill-opacity="1" fill-rule="nonzero"/></g></g></g><g clip-path="url(#9c9b32b782)"><g clip-path="url(#459728bc6b)"><g clip-path="url(#16083dfed2)"><path fill="#2c3c49" d="M 992.875 196.8125 C 991.378906 164.339844 999.738281 137.578125 1011.542969 137.035156 C 1023.351562 136.488281 1034.136719 162.371094 1035.632812 194.84375 C 1037.128906 227.3125 1028.769531 254.078125 1016.960938 254.621094 C 1005.15625 255.167969 994.371094 229.285156 992.875 196.8125 Z M 1087.515625 251.371094 C 1099.324219 250.828125 1107.683594 224.0625 1106.1875 191.589844 C 1104.691406 159.121094 1093.90625 133.238281 1082.097656 133.78125 C 1070.289062 134.328125 1061.929688 161.089844 1063.425781 193.5625 C 1064.921875 226.035156 1075.707031 251.914062 1087.515625 251.371094 Z M 1170.597656 194.484375 C 1163.789062 194.796875 1158.527344 200.570312 1158.839844 207.375 C 1162.765625 292.535156 1116.335938 364.105469 1055.34375 366.917969 C 994.355469 369.726562 941.542969 302.730469 937.617188 217.570312 C 937.304688 210.761719 931.535156 205.5 924.726562 205.8125 C 917.921875 206.128906 912.660156 211.898438 912.972656 218.707031 C 917.523438 317.453125 981.898438 395 1056.480469 391.5625 C 1131.0625 388.125 1188.039062 304.988281 1183.488281 206.238281 C 1183.171875 199.433594 1177.402344 194.171875 1170.597656 194.484375 Z M 1170.597656 194.484375 " fill-opacity="1" fill-rule="nonzero"/></g></g></g></svg>