<svg width="38" height="36" viewBox="0 0 38 36" fill="none" xmlns="http://www.w3.org/2000/svg">
<path d="M18.6705 3.85223C18.8558 3.48754 19.3767 3.48753 19.562 3.85223L23.7292 12.0543C23.8031 12.1997 23.9432 12.2999 24.1047 12.3228L33.4 13.6428C33.8145 13.7017 33.9774 14.2133 33.6734 14.501L26.9668 20.8474C26.8447 20.9629 26.7888 21.132 26.8181 21.2975L28.4032 30.2768C28.475 30.6834 28.051 30.9968 27.6833 30.809L19.3437 26.548C19.2008 26.475 19.0316 26.475 18.8887 26.548L10.5491 30.809C10.1815 30.9968 9.75746 30.6834 9.82923 30.2768L11.4144 21.2975C11.4436 21.132 11.3877 20.9629 11.2657 20.8474L4.55906 14.501C4.25502 14.2133 4.41799 13.7017 4.83243 13.6428L14.1278 12.3228C14.2893 12.2999 14.4294 12.1997 14.5033 12.0543L18.6705 3.85223Z" fill="#FDD00C"/>
<path d="M23.9521 11.941L19.7849 3.73899C19.5069 3.19195 18.7255 3.19195 18.4476 3.73899L14.2804 11.941C14.2435 12.0137 14.1734 12.0638 14.0927 12.0753L4.79728 13.3953C4.17562 13.4836 3.93116 14.251 4.38723 14.6826L11.0938 21.029C11.1549 21.0867 11.1828 21.1713 11.1682 21.254L9.58304 30.2333C9.47538 30.8432 10.1114 31.3134 10.6629 31.0316L19.0025 26.7707C19.0739 26.7342 19.1585 26.7342 19.23 26.7707L27.5696 31.0316C28.1211 31.3134 28.7571 30.8432 28.6494 30.2333L27.0643 21.254C27.0496 21.1713 27.0776 21.0867 27.1386 21.029L33.8452 14.6826C34.3013 14.251 34.0568 13.4836 33.4352 13.3953L24.1398 12.0753C24.0591 12.0638 23.989 12.0137 23.9521 11.941Z" stroke="#18191F" stroke-width="0.5" stroke-linecap="round" stroke-linejoin="round"/>
</svg>
